<?xml version="1.0" encoding="UTF-8" standalone="no"?>
<!-- Created with Inkscape (http://www.inkscape.org/) -->

<svg
   xmlns:dc="http://purl.org/dc/elements/1.1/"
   xmlns:cc="http://creativecommons.org/ns#"
   xmlns:rdf="http://www.w3.org/1999/02/22-rdf-syntax-ns#"
   xmlns:svg="http://www.w3.org/2000/svg"
   xmlns="http://www.w3.org/2000/svg"
   xmlns:sodipodi="http://sodipodi.sourceforge.net/DTD/sodipodi-0.dtd"
   xmlns:inkscape="http://www.inkscape.org/namespaces/inkscape"
   width="219.59375"
   height="217.84435"
   id="svg2"
   version="1.1"
   inkscape:version="0.91 r13725"
   sodipodi:docname="smoothedvisibilities.svg">
  <defs
     id="defs4">
    <linearGradient
       id="linearGradient3794">
      <stop
         style="stop-color:#008000;stop-opacity:1;"
         offset="0"
         id="stop3796" />
      <stop
         id="stop3802"
         offset="0.5"
         style="stop-color:#9b0000;stop-opacity:1;" />
      <stop
         style="stop-color:#008000;stop-opacity:1;"
         offset="1"
         id="stop3798" />
    </linearGradient>
  </defs>
  <sodipodi:namedview
     id="base"
     pagecolor="#ffffff"
     bordercolor="#666666"
     borderopacity="1.0"
     inkscape:pageopacity="0.0"
     inkscape:pageshadow="2"
     inkscape:zoom="1.4"
     inkscape:cx="76.433611"
     inkscape:cy="158.37934"
     inkscape:document-units="px"
     inkscape:current-layer="layer1"
     showgrid="false"
     inkscape:snap-midpoints="false"
     fit-margin-top="15"
     fit-margin-left="15"
     fit-margin-right="15"
     fit-margin-bottom="15"
     inkscape:window-width="1366"
     inkscape:window-height="706"
     inkscape:window-x="0"
     inkscape:window-y="0"
     inkscape:window-maximized="1" />
  <metadata
     id="metadata7">
    <rdf:RDF>
      <cc:Work
         rdf:about="">
        <dc:format>image/svg+xml</dc:format>
        <dc:type
           rdf:resource="http://purl.org/dc/dcmitype/StillImage" />
        <dc:title></dc:title>
      </cc:Work>
    </rdf:RDF>
  </metadata>
  <g
     inkscape:label="Layer 1"
     inkscape:groupmode="layer"
     id="layer1"
     transform="translate(-48.375,-369.8744)">
    <path
       style="fill:none;stroke:#008000;stroke-width:15;stroke-linecap:butt;stroke-linejoin:miter;stroke-miterlimit:4;stroke-dasharray:none;stroke-opacity:1"
       d="m 69.700526,446.27066 c 0,0 7.071067,-11.11168 18.182745,-23.23351 11.111678,-12.12183 26.263969,-20.20305 44.446709,-1.01015 18.18275,19.1929 20.20305,23.23351 36.3655,41.41625 16.16244,18.18275 40.4061,6.06092 57.57869,-20.20305 17.17259,-26.26396 17.17259,-27.27412 17.17259,-27.27412"
       id="path2999"
       inkscape:connector-curvature="0" />
    <path
       style="fill:none;stroke:#008000;stroke-width:15;stroke-linecap:butt;stroke-linejoin:miter;stroke-miterlimit:4;stroke-dasharray:none;stroke-opacity:1"
       d="m 71.720835,517.87417 c 0,0 7.071067,-11.11168 18.182745,-23.23351 11.11168,-12.12183 26.26397,-20.20305 44.44671,-1.01015 18.18275,19.1929 20.20305,23.23351 36.3655,41.41625 16.16244,18.18275 40.4061,6.06092 57.57869,-20.20305 17.17259,-26.26396 17.17259,-27.27412 17.17259,-27.27412"
       id="path2999-9"
       inkscape:connector-curvature="0" />
    <path
       style="fill:none;stroke:#008000;stroke-width:15;stroke-linecap:butt;stroke-linejoin:miter;stroke-miterlimit:4;stroke-dasharray:none;stroke-opacity:1"
       d="m 70.012086,481.63144 c 0,0 7.071067,-11.11168 18.182745,-23.23351 11.11168,-12.12183 26.263979,-20.20305 44.446719,-1.01015 18.18275,19.1929 20.20305,23.23351 36.3655,41.41625 16.16244,18.18275 40.4061,6.06092 57.57869,-20.20305 17.17259,-26.26396 17.17259,-27.27412 17.17259,-27.27412"
       id="path2999-9-4"
       inkscape:connector-curvature="0" />
  </g>
</svg>
